PathFileType	4	(X/Y/Z)	SUBJ59_3_walk_RCNL2025.trc
DataRate	CameraRate	NumFrames	NumMarkers	Units	OrigDataRate	OrigDataStartFrame	OrigNumFrames
100	100	12	25	mm	100	154	306
Frame#	Time	R_Shoulder			L_Shoulder			C7			J_Notch			R_Elbow			L_Elbow			R_Wrist			L_Wrist			R_Asis			L_Asis			Sacral			Thoracic			Sternum			R_Thigh_Lateral			R_Knee_Lateral			R_Shank_Lateral			R_Ankle_Lateral			R_Heel			R_Toe			L_Thigh_Lateral			L_Knee_Lateral			L_Shank_Lateral			L_Ankle_Lateral			L_Heel			L_Toe		
		X1	Y1	Z1	X2	Y2	Z2	X3	Y3	Z3	X4	Y4	Z4	X5	Y5	Z5	X6	Y6	Z6	X7	Y7	Z7	X8	Y8	Z8	X9	Y9	Z9	X10	Y10	Z10	X11	Y11	Z11	X12	Y12	Z12	X13	Y13	Z13	X14	Y14	Z14	X15	Y15	Z15	X16	Y16	Z16	X17	Y17	Z17	X18	Y18	Z18	X19	Y19	Z19	X20	Y20	Z20	X21	Y21	Z21	X22	Y22	Z22	X23	Y23	Z23	X24	Y24	Z24	X25	Y25	Z25
154	1.53000000	491.757904	1416.561768	109.252289	499.875549	1479.052002	-289.074463	404.136322	1529.910278	-87.868813	566.730164	1432.851074	-94.920334	397.805176	1106.224731	184.467575	533.992554	1158.275269	-431.446564	390.744675	826.038361	186.879723	704.338654	959.182434	-392.110718	567.816589	971.488831	-1.435129	551.975891	965.982605	-227.240631	341.964813	996.751770	-97.735313	337.125366	1315.896240	-119.764412	621.070129	1241.090820	-115.751373	597.196655	593.177002	89.425331	616.230042	501.615814	32.793053	646.197205	303.824860	103.795113	662.615845	60.723217	-11.473032	624.974548	49.899872	-59.397240	823.567444	52.023697	-46.180374	387.029541	590.485168	-301.355804	364.985779	484.745148	-244.050903	246.455444	322.252625	-294.555389	107.377899	140.807587	-208.605576	62.279701	149.400986	-154.443039	220.798462	35.253304	-147.615143
155	1.54000000	504.988556	1416.462402	110.747749	511.821960	1481.276123	-287.248535	416.655975	1530.720825	-85.269951	579.248108	1434.008057	-93.257088	411.769562	1105.956299	185.596344	541.946594	1159.698730	-429.926270	405.802444	825.763306	187.667747	710.745605	959.153534	-391.393478	580.684631	973.302979	-0.575291	564.983032	966.771790	-226.256607	354.863739	997.648621	-97.453644	349.735138	1316.748291	-118.443069	633.957458	1242.404907	-115.002861	609.537903	594.566162	90.103630	627.846619	502.574310	33.477238	657.247925	304.231995	104.303329	664.165344	60.963696	-11.544274	625.860718	50.757854	-59.132622	825.029724	49.091423	-46.624454	405.416931	589.662415	-302.963226	384.436432	483.961182	-246.479385	260.512939	325.918945	-296.225037	117.522896	148.317322	-209.878189	74.336250	159.581329	-154.869064	221.807465	35.114212	-147.457520
156	1.55000000	518.255188	1416.546509	112.128693	523.777283	1483.522217	-285.427704	429.039398	1531.583252	-82.787827	591.658691	1435.215332	-91.697853	425.950958	1105.849487	186.730057	549.770508	1161.146118	-428.339905	421.310593	825.648743	188.474724	716.590942	958.749329	-390.715622	593.357971	975.228210	0.378029	577.887573	967.724792	-225.228317	367.632843	998.621216	-97.204491	362.207428	1317.636841	-117.133965	646.648621	1243.727295	-114.333069	620.834045	595.462891	90.815674	638.821350	503.331879	34.037189	667.414490	304.323700	104.638046	665.421387	61.260223	-11.735937	626.568481	51.471725	-59.007080	826.151184	46.847084	-47.205212	424.851440	588.776062	-304.790497	404.976471	483.155914	-248.956070	276.016754	329.634766	-298.026825	129.428299	156.019882	-211.136475	88.253754	169.971924	-155.272156	223.512024	35.295521	-147.456131
157	1.56000000	531.520752	1416.776245	113.386749	535.696228	1485.711670	-283.628510	441.253967	1532.465088	-80.437630	603.931091	1436.430908	-90.255005	440.332642	1105.857910	187.878754	557.516785	1162.567871	-426.710358	437.247665	825.647034	189.303703	721.936066	957.955383	-390.066010	605.829651	977.185425	1.412283	590.653992	968.785950	-224.182938	380.238922	999.616150	-96.969597	374.519775	1318.534302	-115.830116	659.115112	1245.016724	-113.745964	631.202759	595.941772	91.499107	649.073303	503.864227	34.475803	676.292114	304.155884	104.821175	666.415894	61.575699	-12.030186	627.130615	52.049622	-59.017155	827.000610	45.160389	-47.868835	445.180145	587.854248	-306.754456	426.435760	482.346436	-251.388321	293.017029	333.203308	-299.933533	143.073853	163.746964	-212.370193	103.860382	180.319366	-155.715347	226.398544	35.994461	-147.755188
158	1.57000000	544.749451	1417.111938	114.515968	547.524963	1487.777954	-281.878418	453.289734	1533.351074	-78.227142	616.041626	1437.627441	-88.935364	454.894836	1105.939575	189.049683	565.237732	1163.916992	-425.056641	453.592819	825.714752	190.154320	726.841553	956.765564	-389.435089	618.098206	979.100098	2.505076	603.255127	969.906616	-223.149734	392.656677	1000.587158	-96.731171	386.658997	1319.431519	-114.525101	671.347046	1246.250610	-113.240318	640.824829	596.132324	92.108879	658.566284	504.182892	34.818024	683.736084	303.837158	104.902084	667.182312	61.887695	-12.390846	627.576538	52.514256	-59.139023	827.636353	43.910461	-48.554134	466.169647	586.960388	-308.747528	448.611420	481.580231	-253.702927	311.485931	336.457397	-301.907990	158.345993	171.364319	-213.544495	120.889244	190.370361	-156.216782	231.104019	37.412415	-148.516983
159	1.58000000	557.903870	1417.521240	115.513046	559.206604	1489.675415	-280.213989	465.154602	1534.244873	-76.161674	627.975403	1438.794067	-87.740921	469.616394	1106.063843	190.243683	572.979431	1165.154541	-423.396759	470.322800	825.820099	191.021744	731.363190	955.187744	-388.815002	630.164551	980.909119	3.626751	615.682922	971.055542	-222.150665	404.872345	1001.503296	-96.472809	398.619781	1320.335693	-113.215439	683.350037	1247.427002	-112.811348	649.908752	596.172363	92.626419	667.316895	504.321350	35.093563	689.791748	303.459351	104.934746	667.758667	62.183670	-12.781621	627.931580	52.892693	-59.341145	828.103760	42.995598	-49.209255	487.526703	586.193298	-310.660522	471.294586	480.937469	-255.854691	331.309113	339.302643	-303.903778	175.064438	178.785187	-214.598038	139.048462	199.884109	-156.726730	238.339539	39.685783	-149.915115
160	1.59000000	570.943481	1417.985962	116.377800	570.688904	1491.382690	-278.676086	476.865631	1535.164917	-74.246780	639.727661	1439.936157	-86.670708	484.475281	1106.217651	191.454483	580.777344	1166.254395	-421.749023	487.406372	825.948273	191.896584	735.547180	953.245148	-388.199371	642.028809	982.565491	4.745624	627.951172	972.224915	-221.194992	416.885315	1002.353027	-96.180176	410.404022	1321.265137	-111.901886	695.140381	1248.563477	-112.450668	658.625793	596.168945	93.053246	675.380676	504.319763	35.323559	694.605652	303.074463	104.965622	668.186584	62.457096	-13.176019	628.217285	53.209732	-59.593628	828.438049	42.333199	-49.795639	508.941620	585.675354	-312.405823	494.295197	480.525848	-257.830505	352.298492	341.741760	-305.864899	193.030975	185.949066	-215.455658	158.104477	208.637100	-157.136429	248.739624	42.814873	-152.102432
161	1.60000000	583.827026	1418.506348	117.114349	581.932312	1492.901978	-277.304199	488.441559	1536.137207	-72.488777	651.302673	1441.071899	-85.722878	499.446869	1106.407959	192.670090	588.654602	1167.204712	-420.128906	504.805557	826.106293	192.765335	739.427704	950.972931	-387.584274	653.691833	984.043945	5.835088	640.084961	973.429016	-220.283142	428.707397	1003.144897	-95.842834	422.019287	1322.240479	-110.589127	706.740051	1249.689819	-112.145737	667.062317	596.177979	93.396103	682.828735	504.214325	35.516003	698.390503	302.706177	105.020401	668.507812	62.705345	-13.557985	628.451111	53.487144	-59.870041	828.670471	41.855347	-50.291588	530.139893	585.531128	-313.933685	517.458069	480.463531	-259.649170	374.221497	343.865509	-307.721344	212.087677	192.773361	-216.052231	177.934052	216.422287	-157.322647	262.687103	46.636139	-155.144821
162	1.61000000	596.518433	1419.101562	117.731941	592.915344	1494.253174	-276.130493	499.898346	1537.186646	-70.894821	662.712036	1442.226685	-84.896118	514.502808	1106.660400	193.873978	596.621033	1168.007446	-418.545654	522.488068	826.325867	193.613174	743.026154	948.415161	-386.968857	665.162292	985.343689	6.880382	652.106934	974.695984	-219.411911	440.359772	1003.904724	-95.456650	433.477295	1323.277222	-109.284782	718.173401	1250.839844	-111.879959	675.221191	596.207336	93.657402	689.727600	504.035004	35.668575	701.415527	302.361420	105.095291	668.760254	62.928497	-13.919149	628.644531	53.744488	-60.145084	828.832031	41.506512	-50.693027	550.925171	585.861755	-315.234894	540.667603	480.852631	-261.352478	396.836060	345.815155	-309.386902	232.155701	199.111404	-216.357758	198.517624	223.049561	-157.202774	280.208038	50.856117	-158.956177
163	1.62000000	608.991638	1419.805298	118.244385	603.635559	1495.467285	-275.174316	511.247192	1538.329712	-69.472847	673.972656	1443.425659	-84.189850	529.612244	1107.013916	195.046448	604.671997	1168.676758	-417.001495	540.442963	826.663300	194.429550	746.351898	945.626038	-386.354904	676.459595	986.485291	7.880465	664.032410	976.057922	-218.575546	451.868927	1004.671265	-95.026123	444.792542	1324.382202	-107.998299	729.464722	1252.043213	-111.633293	683.059204	596.240051	93.835342	696.130188	503.807434	35.774837	703.975342	302.034424	105.162071	668.972412	63.128288	-14.256665	628.804565	53.995518	-60.397953	828.952087	41.244263	-51.008743	571.202026	586.719971	-316.329956	563.844055	481.754181	-262.983643	419.923981	347.734406	-310.774597	253.229172	204.748108	-216.392410	219.889160	228.354843	-156.769775	301.001495	55.123951	-163.283600
164	1.63000000	621.231995	1420.659058	118.668640	614.107910	1496.578491	-274.439240	522.494690	1539.570435	-68.230858	685.106323	1444.687622	-83.603401	544.743774	1107.513672	196.167389	612.789490	1169.234497	-415.491516	558.684113	827.192810	195.212265	749.406158	942.668762	-385.745453	687.610718	987.501587	8.844249	675.870117	977.541443	-217.765533	463.262329	1005.487732	-94.566093	455.981049	1325.553589	-106.740097	740.636658	1253.318726	-111.383400	690.530701	596.261902	93.927902	702.079041	503.554901	35.829464	706.329834	301.715088	105.185661	669.161072	63.306271	-14.571350	628.938965	54.245110	-60.620499	829.056335	41.039284	-51.254242	590.973633	588.096802	-317.250244	586.935730	483.174164	-264.562195	443.315979	349.722076	-311.828735	275.329651	209.437103	-216.224075	242.081818	232.216095	-156.096497	324.584595	59.106750	-167.762909
165	1.64000000	633.233765	1421.700928	119.023705	624.360901	1497.617432	-273.912903	533.644775	1540.901001	-67.175758	696.136963	1446.020752	-83.134628	559.864868	1108.201660	197.220505	620.943298	1169.705200	-414.004333	577.235138	827.992157	195.965462	752.188965	939.611176	-385.142975	698.644592	988.431091	9.784103	687.624023	979.161560	-216.971664	474.564911	1006.391602	-94.100533	467.060089	1326.781860	-105.520645	751.707825	1254.671265	-111.108002	697.613708	596.272522	93.933739	707.613770	503.298218	35.829720	708.650146	301.400330	105.142548	669.331787	63.461872	-14.865664	629.058167	54.492432	-60.816841	829.164490	40.872894	-51.447308	610.314270	589.926819	-318.021729	609.905273	485.066956	-266.075195	466.905640	351.795380	-312.551880	298.457855	212.955444	-215.948196	265.097565	234.564407	-155.313644	350.463776	62.544624	-172.019638
